<svg xmlns="http://www.w3.org/2000/svg" width="256" height="256" viewBox="0 0 67.733 67.733"><g aria-label="A" style="font-size:82.4964px;stroke-width:.214835"><path d="M29.743 26.01c1.737-7.225 2.418-13.27 2.418-13.27s2.738 4.015 5.803 12.208c-4.19-3.22-4.88-2.861-8.221 1.061" style="font-size:82.4964px;stroke-width:.0568418;fill:#aaf" transform="scale(1.04765 .95452)"/><path d="M62.091 66.811s-4.283-.414-8.083-3.541c-3.8-3.128-2.337.116-6.869-11.33s-18.263-4.022-26.971 0c-3.68 8.744-4.355 9.677-4.355 9.677L5.132 68.7s25.05-35.211 23.203-55.245c-1.848-20.035 11.056 0 11.056 0zM47.1 45.141c-3.532-9.237-14.2-32.098-14.2-32.098S31.09 28.86 22.68 45.848c-3.388 6.847 18.9-8.707 24.419-.708" style="font-size:82.4964px;fill:#ff8080;stroke-width:.206614" transform="scale(1.04765 .95452)"/><path d="M60.76 65.795s-4.283-.414-8.083-3.541c-3.8-3.128-2.337.115-6.868-11.33s-18.264-4.022-26.972 0c-3.68 8.744-4.355 9.677-4.355 9.677L3.8 67.684s25.05-35.211 23.203-55.246c-1.848-20.034 11.056 0 11.056 0zM45.768 44.124c-3.532-9.236-14.2-32.097-14.2-32.097s-1.81 15.817-10.218 32.805c-3.389 6.847 18.899-8.707 24.418-.708" style="font-size:82.4964px;stroke-width:.206614;fill:#ffe680" transform="scale(1.04765 .95452)"/></g></svg>